<svg width="28" height="28" viewBox="0 0 28 28" fill="none" xmlns="http://www.w3.org/2000/svg">
<path d="M2.33594 25.6641H25.6693" stroke="#ABABAB" stroke-width="1.12" stroke-linecap="round" stroke-linejoin="round"/>
<path d="M3.625 25.6641V15.1641C3.625 13.2274 5.36333 11.6641 7.51 11.6641H20.4717C22.6183 11.6641 24.3567 13.2274 24.3567 15.1641V25.6641" stroke="#ABABAB" stroke-width="1.12" stroke-linecap="round" stroke-linejoin="round"/>
<path d="M6.48438 11.6693V8.3676C6.48438 6.9676 7.74438 5.83594 9.30771 5.83594H18.6994C20.251 5.83594 21.511 6.9676 21.511 8.3676V11.6693" stroke="#ABABAB" stroke-width="1.12" stroke-linecap="round" stroke-linejoin="round"/>
<path d="M4.11719 16.3125L4.54885 16.3242C5.41219 16.3358 6.10052 17.0358 6.10052 17.8992V18.2842C6.10052 19.1475 6.80052 19.8592 7.67552 19.8592C8.53885 19.8592 9.25052 19.1592 9.25052 18.2842V17.9225C9.25052 17.0592 9.95052 16.3475 10.8255 16.3475C11.6889 16.3475 12.4005 17.0475 12.4005 17.9225V18.2842C12.4005 19.1475 13.1005 19.8592 13.9755 19.8592C14.8389 19.8592 15.5505 19.1592 15.5505 18.2842V17.9225C15.5505 17.0592 16.2505 16.3475 17.1255 16.3475C17.9889 16.3475 18.7005 17.0475 18.7005 17.9225V18.2842C18.7005 19.1475 19.4005 19.8592 20.2755 19.8592C21.1389 19.8592 21.8505 19.1592 21.8505 18.2842V17.9225C21.8505 17.0592 22.5505 16.3475 23.4255 16.3475H23.9505" stroke="#ABABAB" stroke-width="1.12" stroke-linecap="round" stroke-linejoin="round"/>
<path d="M9.33594 5.83333V3.5" stroke="#ABABAB" stroke-width="1.12" stroke-linecap="round" stroke-linejoin="round"/>
<path d="M18.6641 5.83333V3.5" stroke="#ABABAB" stroke-width="1.12" stroke-linecap="round" stroke-linejoin="round"/>
<path d="M14 5.83594V2.33594" stroke="#ABABAB" stroke-width="1.12" stroke-linecap="round" stroke-linejoin="round"/>
</svg>
