<svg width="26" height="26" viewBox="0 0 26 26" fill="none" xmlns="http://www.w3.org/2000/svg">
<path d="M23.7566 7.32245L20.1058 21.98C19.8458 23.0741 18.8708 23.8324 17.7441 23.8324H3.50908C1.87325 23.8324 0.703266 22.229 1.19077 20.6582L5.75159 6.01166C6.06576 4.99332 7.00827 4.28906 8.06994 4.28906H21.3949C22.4241 4.28906 23.2799 4.9174 23.6374 5.78407C23.8433 6.2499 23.8866 6.78078 23.7566 7.32245Z" stroke="#3572EF" stroke-miterlimit="10"/>
<path d="M17.333 23.8333H22.5113C23.9088 23.8333 25.003 22.6525 24.9055 21.255L23.833 6.5" stroke="#3572EF" stroke-miterlimit="10" stroke-linecap="round" stroke-linejoin="round"/>
<path d="M10.4863 6.91432L11.613 2.23438" stroke="#3572EF" stroke-miterlimit="10" stroke-linecap="round" stroke-linejoin="round"/>
<path d="M17.7441 6.92038L18.7625 2.21875" stroke="#3572EF" stroke-miterlimit="10" stroke-linecap="round" stroke-linejoin="round"/>
<path d="M8.34082 13H17.0075" stroke="#3572EF" stroke-miterlimit="10" stroke-linecap="round" stroke-linejoin="round"/>
<path d="M7.25781 17.3359H15.9245" stroke="#3572EF" stroke-miterlimit="10" stroke-linecap="round" stroke-linejoin="round"/>
</svg>
