<svg width="28" height="28" viewBox="0 0 28 28" fill="none" xmlns="http://www.w3.org/2000/svg">
<path d="M22.1302 25.6693H5.79687C2.29687 25.6693 2.29688 24.0943 2.29688 22.1693V21.0026C2.29688 20.3609 2.82187 19.8359 3.46354 19.8359H24.4635C25.1052 19.8359 25.6302 20.3609 25.6302 21.0026V22.1693C25.6302 24.0943 25.6302 25.6693 22.1302 25.6693Z" stroke="#ABABAB" stroke-width="1.12" stroke-linecap="round" stroke-linejoin="round"/>
<path d="M24.1708 15.1693V19.8359H3.8125V15.1693C3.8125 10.6893 6.97417 6.94427 11.1858 6.04594C11.8158 5.90594 12.4692 5.83594 13.1458 5.83594H14.8375C15.5142 5.83594 16.1792 5.90594 16.8092 6.04594C21.0208 6.95594 24.1708 10.6893 24.1708 15.1693Z" stroke="#ABABAB" stroke-width="1.12" stroke-linecap="round" stroke-linejoin="round"/>
<path d="M16.9193 5.2526C16.9193 5.5326 16.8843 5.78927 16.8143 6.04594C16.1843 5.90594 15.5193 5.83594 14.8426 5.83594H13.1509C12.4743 5.83594 11.8209 5.90594 11.1909 6.04594C11.1209 5.78927 11.0859 5.5326 11.0859 5.2526C11.0859 3.6426 12.3926 2.33594 14.0026 2.33594C15.6126 2.33594 16.9193 3.6426 16.9193 5.2526Z" stroke="#ABABAB" stroke-width="1.12" stroke-linecap="round" stroke-linejoin="round"/>
<path d="M17.5 12.8359H10.5" stroke="#ABABAB" stroke-width="1.12" stroke-linecap="round" stroke-linejoin="round"/>
</svg>
