<svg width="26" height="26" viewBox="0 0 26 26" fill="none" xmlns="http://www.w3.org/2000/svg">
<path d="M13 16.25C14.7949 16.25 16.25 14.7949 16.25 13C16.25 11.2051 14.7949 9.75 13 9.75C11.2051 9.75 9.75 11.2051 9.75 13C9.75 14.7949 11.2051 16.25 13 16.25Z" stroke="#3572EF" stroke-miterlimit="10" stroke-linecap="round" stroke-linejoin="round"/>
<path d="M2.16699 13.9522V12.0456C2.16699 10.9189 3.08783 9.98725 4.22533 9.98725C6.18616 9.98725 6.98783 8.60058 6.00199 6.89975C5.43866 5.92475 5.77449 4.65725 6.76033 4.09391L8.63449 3.02141C9.49033 2.51225 10.5953 2.81558 11.1045 3.67141L11.2237 3.87725C12.1987 5.57808 13.802 5.57808 14.7878 3.87725L14.907 3.67141C15.4162 2.81558 16.5212 2.51225 17.377 3.02141L19.2512 4.09391C20.237 4.65725 20.5728 5.92475 20.0095 6.89975C19.0237 8.60058 19.8253 9.98725 21.7862 9.98725C22.9128 9.98725 23.8445 10.9081 23.8445 12.0456V13.9522C23.8445 15.0789 22.9237 16.0106 21.7862 16.0106C19.8253 16.0106 19.0237 17.3972 20.0095 19.0981C20.5728 20.0839 20.237 21.3406 19.2512 21.9039L17.377 22.9764C16.5212 23.4856 15.4162 23.1822 14.907 22.3264L14.7878 22.1206C13.8128 20.4197 12.2095 20.4197 11.2237 22.1206L11.1045 22.3264C10.5953 23.1822 9.49033 23.4856 8.63449 22.9764L6.76033 21.9039C5.77449 21.3406 5.43866 20.0731 6.00199 19.0981C6.98783 17.3972 6.18616 16.0106 4.22533 16.0106C3.08783 16.0106 2.16699 15.0789 2.16699 13.9522Z" stroke="#3572EF" stroke-miterlimit="10" stroke-linecap="round" stroke-linejoin="round"/>
</svg>
